<svg id="Apple" viewBox="0 0 512 512" xmlns="http://www.w3.org/2000/svg"><path d="m90 93.25 65.06 65.06a140.31 140.31 0 0 1 201-1l65-65.09a232.33 232.33 0 0 0 -331 1z" fill="#f0432c"/><path d="m90.85 419.76 65-65a140.34 140.34 0 0 1 1-198.71l-65.04-65.05a232.35 232.35 0 0 0 -1 328.8z" fill="#ffbf00"/><path d="m301.98 301.84v.96h.96z" fill="#24aa49"/><path d="m255.5 488.21a231.65 231.65 0 0 0 164.55-68.3l-65.05-65.07a140.3 140.3 0 0 1 -199 0l-65 65a231.65 231.65 0 0 0 164.5 68.37z" fill="#24aa49"/><path d="m484.36 210.33-181.42.25v92.22h85.84a140.7 140.7 0 0 1 -33.69 52.91l65.05 65.06a232.65 232.65 0 0 0 64.22-210.44z" fill="#3384fc"/></svg>