<svg id="Layer_1" height="512" viewBox="0 0 512 512" width="512" xmlns="http://www.w3.org/2000/svg" data-name="Layer 1"><path d="m71.732 404.241a45.425 45.425 0 0 0 -7.352 53.321l.865 1.606a45.2 45.2 0 0 0 57.965 20.2l13.4-5.771a35.361 35.361 0 0 1 29.588.727l11.649 5.712a45.515 45.515 0 0 0 53.5-71.681l-42.648-45.5a52.692 52.692 0 0 0 -76.347-.6z"/><ellipse cx="109.168" cy="288.91" rx="32.89" ry="43.032"/><ellipse cx="191.818" cy="285.406" rx="32.89" ry="43.033"/><path d="m269.251 300.31c-6.341-2.054-13.192-1.35-19.809 2.036-9.6 4.913-17.366 14.716-21.3 26.9-6.8 21.084.565 42.414 16.421 47.548a23.573 23.573 0 0 0 7.294 1.151 27.447 27.447 0 0 0 12.515-3.187c9.6-4.912 17.365-14.716 21.3-26.9 6.801-21.084-.565-42.414-16.421-47.548z"/><path d="m37.022 376.464a27.856 27.856 0 0 0 11.445 2.588 23.683 23.683 0 0 0 8.442-1.545c15.581-5.921 21.873-27.593 14.029-48.309-4.532-11.969-12.772-21.372-22.609-25.8-6.779-3.05-13.656-3.41-19.887-1.042-15.58 5.921-21.873 27.592-14.029 48.309 4.532 11.97 12.772 21.373 22.609 25.799z"/><path d="m284.49 189.183a45.424 45.424 0 0 0 -7.352 53.321l.865 1.605a45.2 45.2 0 0 0 39.859 23.964 45.713 45.713 0 0 0 18.106-3.763l13.4-5.772a35.361 35.361 0 0 1 29.588.728l11.65 5.711a45.515 45.515 0 0 0 53.494-71.677l-42.647-45.5a52.689 52.689 0 0 0 -76.346-.6z"/><path d="m321.925 116.884c18.136 0 32.89-19.3 32.89-43.032s-14.754-43.033-32.89-43.033-32.89 19.3-32.89 43.033 14.755 43.032 32.89 43.032z"/><path d="m404.575 113.38c18.136 0 32.89-19.3 32.89-43.033s-14.754-43.032-32.89-43.032-32.89 19.3-32.89 43.032 14.755 43.033 32.89 43.033z"/><path d="m482.009 85.252c-6.342-2.052-13.191-1.352-19.809 2.035-9.6 4.913-17.366 14.716-21.3 26.9-6.8 21.083.564 42.413 16.42 47.548a23.608 23.608 0 0 0 7.3 1.15 27.448 27.448 0 0 0 12.515-3.186c9.6-4.913 17.366-14.717 21.294-26.9 6.802-21.084-.564-42.414-16.42-47.547z"/><path d="m249.78 161.406a27.87 27.87 0 0 0 11.444 2.587 23.645 23.645 0 0 0 8.443-1.545c15.58-5.921 21.873-27.593 14.029-48.309-4.532-11.968-12.772-21.371-22.609-25.8-6.779-3.05-13.656-3.411-19.888-1.043-15.579 5.921-21.873 27.592-14.028 48.31 4.529 11.971 12.772 21.374 22.609 25.8z"/></svg>